# This file uses centimeters as units for non-parametric coordinates.

mtllib Spikes.mtl
g default
v -0.500000 -0.500000 0.500000
v 0.500000 -0.500000 0.500000
v -0.500000 0.500000 0.500000
v 0.500000 0.500000 0.500000
v -0.500000 0.500000 -0.500000
v 0.500000 0.500000 -0.500000
v -0.500000 -0.500000 -0.500000
v 0.500000 -0.500000 -0.500000
v -0.013153 -0.008111 1.964801
v 0.006053 -0.008111 1.964801
v 0.006053 0.008111 1.964801
v -0.013153 0.008111 1.964801
v 2.004114 -0.007485 -0.007485
v 2.004114 -0.007485 0.007485
v 2.004114 0.007485 -0.007485
v 2.004114 0.007485 0.007485
v -0.001201 0.001201 -2.000576
v 0.001201 0.001201 -2.000576
v 0.001201 -0.001201 -2.000576
v -0.001201 -0.001201 -2.000576
v -1.996623 -0.004002 -0.004002
v -1.996623 -0.004002 0.004002
v -1.996623 0.004002 0.004002
v -1.996623 0.004002 -0.004002
v -0.006644 -2.000000 -0.006644
v 0.006644 -2.000000 -0.006644
v 0.006644 -2.000000 0.006644
v -0.006644 -2.000000 0.006644
v -0.017654 2.000000 0.017654
v 0.017654 2.000000 0.017654
v 0.017654 2.000000 -0.017654
v -0.017654 2.000000 -0.017654
vt 0.375000 0.000000
vt 0.625000 0.000000
vt 0.375000 0.250000
vt 0.625000 0.250000
vt 0.375000 0.500000
vt 0.625000 0.500000
vt 0.375000 0.750000
vt 0.625000 0.750000
vt 0.375000 1.000000
vt 0.625000 1.000000
vt 0.875000 0.000000
vt 0.875000 0.250000
vt 0.125000 0.000000
vt 0.125000 0.250000
vt 0.375000 0.000000
vt 0.625000 0.000000
vt 0.625000 0.250000
vt 0.375000 0.250000
vt 0.625000 0.000000
vt 0.875000 0.000000
vt 0.875000 0.250000
vt 0.625000 0.250000
vt 0.375000 0.500000
vt 0.625000 0.500000
vt 0.625000 0.750000
vt 0.375000 0.750000
vt 0.125000 0.000000
vt 0.375000 0.000000
vt 0.375000 0.250000
vt 0.125000 0.250000
vt 0.375000 0.750000
vt 0.625000 0.750000
vt 0.625000 1.000000
vt 0.375000 1.000000
vt 0.375000 0.250000
vt 0.625000 0.250000
vt 0.625000 0.500000
vt 0.375000 0.500000
vn 0.000000 0.000000 1.000000
vn 0.000000 0.000000 1.000000
vn 0.000000 0.000000 1.000000
vn 0.000000 0.000000 1.000000
vn 0.000000 1.000000 0.000000
vn 0.000000 1.000000 0.000000
vn 0.000000 1.000000 0.000000
vn 0.000000 1.000000 0.000000
vn 0.000000 0.000000 -1.000000
vn 0.000000 0.000000 -1.000000
vn 0.000000 0.000000 -1.000000
vn 0.000000 0.000000 -1.000000
vn 0.000000 -1.000000 0.000000
vn 0.000000 -1.000000 0.000000
vn 0.000000 -1.000000 0.000000
vn 0.000000 -1.000000 0.000000
vn 1.000000 0.000000 0.000000
vn 1.000000 0.000000 0.000000
vn 1.000000 0.000000 0.000000
vn 1.000000 0.000000 0.000000
vn -1.000000 0.000000 0.000000
vn -1.000000 0.000000 0.000000
vn -1.000000 0.000000 0.000000
vn -1.000000 0.000000 0.000000
vn 0.000000 -0.947978 0.318337
vn 0.000000 -0.947978 0.318337
vn 0.000000 -0.947978 0.318337
vn 0.000000 -0.947978 0.318337
vn 0.947575 0.000000 0.319532
vn 0.947575 0.000000 0.319532
vn 0.947575 0.000000 0.319532
vn 0.947575 0.000000 0.319532
vn 0.000000 0.947978 0.318337
vn 0.000000 0.947978 0.318337
vn 0.000000 0.947978 0.318337
vn 0.000000 0.947978 0.318337
vn -0.948959 0.000000 0.315400
vn -0.948959 0.000000 0.315400
vn -0.948959 0.000000 0.315400
vn -0.948959 0.000000 0.315400
vn 0.311187 -0.950349 0.000000
vn 0.311187 -0.950349 0.000000
vn 0.311187 -0.950349 0.000000
vn 0.311187 -0.950349 0.000000
vn 0.311187 0.000000 -0.950349
vn 0.311187 0.000000 -0.950349
vn 0.311187 0.000000 -0.950349
vn 0.311187 0.000000 -0.950349
vn 0.311187 0.950349 0.000000
vn 0.311187 0.950349 0.000000
vn 0.311187 0.950349 0.000000
vn 0.311187 0.950349 0.000000
vn 0.311187 0.000000 0.950349
vn 0.311187 0.000000 0.950349
vn 0.311187 0.000000 0.950349
vn 0.311187 0.000000 0.950349
vn 0.000000 0.948947 -0.315435
vn 0.000000 0.948947 -0.315435
vn 0.000000 0.948947 -0.315435
vn 0.000000 0.948947 -0.315435
vn 0.948947 0.000000 -0.315435
vn 0.948947 0.000000 -0.315435
vn 0.948947 0.000000 -0.315435
vn 0.948947 0.000000 -0.315435
vn 0.000000 -0.948947 -0.315435
vn 0.000000 -0.948947 -0.315435
vn 0.000000 -0.948947 -0.315435
vn 0.000000 -0.948947 -0.315435
vn -0.948947 0.000000 -0.315435
vn -0.948947 0.000000 -0.315435
vn -0.948947 0.000000 -0.315435
vn -0.948947 0.000000 -0.315435
vn -0.314585 -0.949229 0.000000
vn -0.314585 -0.949229 0.000000
vn -0.314585 -0.949229 0.000000
vn -0.314585 -0.949229 0.000000
vn -0.314585 0.000000 0.949229
vn -0.314585 0.000000 0.949229
vn -0.314585 0.000000 0.949229
vn -0.314585 0.000000 0.949229
vn -0.314585 0.949229 0.000000
vn -0.314585 0.949229 0.000000
vn -0.314585 0.949229 0.000000
vn -0.314585 0.949229 0.000000
vn -0.314585 0.000000 -0.949229
vn -0.314585 0.000000 -0.949229
vn -0.314585 0.000000 -0.949229
vn -0.314585 0.000000 -0.949229
vn 0.000000 -0.312439 -0.949938
vn 0.000000 -0.312439 -0.949938
vn 0.000000 -0.312439 -0.949938
vn 0.000000 -0.312439 -0.949938
vn 0.949938 -0.312439 0.000000
vn 0.949938 -0.312439 0.000000
vn 0.949938 -0.312439 0.000000
vn 0.949938 -0.312439 0.000000
vn 0.000000 -0.312439 0.949938
vn 0.000000 -0.312439 0.949938
vn 0.000000 -0.312439 0.949938
vn 0.000000 -0.312439 0.949938
vn -0.949938 -0.312439 0.000000
vn -0.949938 -0.312439 0.000000
vn -0.949938 -0.312439 0.000000
vn -0.949938 -0.312439 0.000000
vn 0.000000 0.306126 0.951991
vn 0.000000 0.306126 0.951991
vn 0.000000 0.306126 0.951991
vn 0.000000 0.306126 0.951991
vn 0.951991 0.306126 0.000000
vn 0.951991 0.306126 0.000000
vn 0.951991 0.306126 0.000000
vn 0.951991 0.306126 0.000000
vn 0.000000 0.306126 -0.951991
vn 0.000000 0.306126 -0.951991
vn 0.000000 0.306126 -0.951991
vn 0.000000 0.306126 -0.951991
vn -0.951991 0.306126 0.000000
vn -0.951991 0.306126 0.000000
vn -0.951991 0.306126 0.000000
vn -0.951991 0.306126 0.000000
s off
g pCube1
usemtl initialShadingGroup
f 9/15/1 10/16/2 11/17/3 12/18/4
f 29/35/5 30/36/6 31/37/7 32/38/8
f 17/23/9 18/24/10 19/25/11 20/26/12
f 25/31/13 26/32/14 27/33/15 28/34/16
f 14/19/17 13/20/18 15/21/19 16/22/20
f 21/27/21 22/28/22 23/29/23 24/30/24
f 1/1/25 2/2/26 10/16/27 9/15/28
f 2/2/29 4/4/30 11/17/31 10/16/32
f 4/4/33 3/3/34 12/18/35 11/17/36
f 3/3/37 1/1/38 9/15/39 12/18/40
f 2/2/41 8/11/42 13/20/43 14/19/44
f 8/11/45 6/12/46 15/21/47 13/20/48
f 6/12/49 4/4/50 16/22/51 15/21/52
f 4/4/53 2/2/54 14/19/55 16/22/56
f 5/5/57 6/6/58 18/24/59 17/23/60
f 6/6/61 8/8/62 19/25/63 18/24/64
f 8/8/65 7/7/66 20/26/67 19/25/68
f 7/7/69 5/5/70 17/23/71 20/26/72
f 7/13/73 1/1/74 22/28/75 21/27/76
f 1/1/77 3/3/78 23/29/79 22/28/80
f 3/3/81 5/14/82 24/30/83 23/29/84
f 5/14/85 7/13/86 21/27/87 24/30/88
f 7/7/89 8/8/90 26/32/91 25/31/92
f 8/8/93 2/10/94 27/33/95 26/32/96
f 2/10/97 1/9/98 28/34/99 27/33/100
f 1/9/101 7/7/102 25/31/103 28/34/104
f 3/3/105 4/4/106 30/36/107 29/35/108
f 4/4/109 6/6/110 31/37/111 30/36/112
f 6/6/113 5/5/114 32/38/115 31/37/116
f 5/5/117 3/3/118 29/35/119 32/38/120
